<?xml version="1.0" encoding="UTF-8"?>
<svg id="Layer_1" data-name="Layer 1" xmlns="http://www.w3.org/2000/svg" viewBox="0 0 16.51 10.44">
  <defs>
    <style>
      .cls-1 {
        fill: #fff;
      }
    </style>
  </defs>
  <path class="cls-1" d="M7.64,5.75l-.12,.17s-.17,.22-.2,.26c-.07,.08-.26,.06-.35,.18-.13,.16-.34,.17-.53,.17-.1,.06-.18,.11-.3,.11-.02,0-.04,0-.06-.01-.05-.02-.08-.02-.13-.02h-.14s-.04-.01-.05-.02c-.01,0-.31-.08-.32-.08h-.19s-.07-.07-.12-.1c-.12-.06-.24-.14-.25-.28-.01-.07-.05-.14-.05-.23,.04-.08,.13-.19,.13-.26,0-.08-.05-.2-.07-.29-.01-.04-.01-.1-.01-.17v-.17c0-.1-.07-.16-.07-.26,0-.04,.01-.07,.01-.11,0-.1-.06-.18-.06-.28,0-.07,.02-.16,.02-.23,0-.06-.05-.06-.05-.12s.04-.13,.04-.19c0-.08-.02-.17-.02-.25,0-.19-.5-.12-.62-.17-.31,.22-.17,.3-.28,.38l-.23,.3c-.02,.06-.04,.19-.1,.23-.05,.02-.07,.14-.08,.19-.02,.07-.1,.13-.11,.2,0,.04-.07,.14-.1,.18-.1,.12-.06,.29-.13,.38-.06,.08-.34,.53-.35,.6,0,.06-.04,.12-.04,.18,0,.01,0,.05,.02,.05,.1,.07,.17,.08,.25,.08,.07,0,.14-.01,.24-.01h.32c.07,0,.13,.02,.2,.02,.04,0,.07-.01,.11-.01,.01,0,.16,.06,.16,.07,0,.04,0,.11-.04,.12-.06,.02-.16,.06-.23,.06-.06,0-.62-.04-.66-.05-.08-.02-.14-.02-.23-.02-.16,0-.25,.12-.41,.12-.06,0-.12-.04-.18-.04-.1,0-.18,.02-.28,.02-.08,0-.18-.01-.26-.01-.1,0-.19-.06-.29-.06h-.23s-.16-.02-.22-.02c-.17,0-.46,.08-.6,.08-.05,0-.24-.02-.28-.06-.05-.05-.12-.06-.13-.13,.02-.01,.06-.04,.08-.04,.17,0,.06-.07,.18-.07,.05,0,.11,.01,.16,.01,.11,0,.2-.01,.31-.01,.1,0,.18,.02,.28,.02,.2,0,.34-.02,.5-.16,.02-.02,.25-.37,.25-.38,.01-.07,.26-.43,.32-.5,.06-.08,.1-.11,.12-.22,.05-.23,.19-.34,.28-.54,.07-.17,.4-.5,.41-.61,.01-.07,.05-.14,.07-.22,.01-.06,.11-.14,.14-.2,.06-.1,.1-.2,.17-.29,.06-.08,.08-.22,.14-.3,.04-.05,.02-.14,.06-.19,.07-.1,.29-.53,.32-.64,.07-.22,.23-.41,.26-.64,.01-.07,.05-.23,.12-.26,.18-.08,.17-.41,.24-.48,.04-.02,.07-.06,.07-.11,0-.04-.1-.12-.13-.12-.01,0-.04,.01-.05,.01-.11,0-.17-.06-.38-.06-.04-.01-.08-.01-.12-.01-.08,0-.17,.02-.25,.02-.1,0-.12,.05-.19,.07-.02,.01-.07,.01-.11,.01h-.11c-.06,.02-.1,.07-.16,.08-.07,.01-.16,.01-.2,.07-.05,.05-.11,.08-.18,.1-.1,.02-.17,.1-.25,.12s-.17,.04-.23,.1c-.05,.04-.07,.12-.12,.14-.08,.05-.18,.13-.25,.19-.04,.02-.1,.06-.11,.1-.02,.05-.06,.11-.11,.13-.02,.01-.13,.24-.13,.26,0,.06,0,.13-.05,.18-.05,.05-.06,.1-.06,.16s.01,.13,.01,.19c-.04,.06-.04,.08-.04,.13v.08c0,.06,0,.08,.05,.13,.08,.06,.08,.2,.18,.24,.06,.02,.08,.08,.13,.11,.06,.02,.05,.12,.12,.13,.11,.02,.18,.16,.32,.16,.06,0,.11,.04,.17,.04,.04,0,.19-.07,.22-.1,.02-.01,.24-.23,.24-.23,.04-.06,.12-.07,.14-.12,.02-.04,.07-.05,.1-.08,.01,.01,.02,.02,.02,.05-.04,.07-.17,.31-.25,.32-.08,.02-.13,.26-.29,.31-.04,.04-.06,.04-.08,.04h-.06c-.13,0-.24,.08-.35,.08-.05,0-.07-.02-.12-.02-.04,0-.06,.02-.1,.02-.08,0-.16-.04-.24-.06-.07-.02-.17,0-.23-.04-.06-.04-.14-.02-.2-.07-.13-.11-.32-.14-.4-.25-.04-.06-.11-.12-.13-.18-.01-.06-.1-.1-.11-.18-.01-.06-.06-.14-.06-.2,0-.07,.01-.16,.04-.22,0-.05-.02-.08-.02-.13,0-.16,.16-.32,.25-.44,.12-.16,.2-.42,.36-.54,.05-.04,.13-.1,.17-.14,.05-.06,.16-.1,.22-.14,.12-.08,.19-.2,.31-.29,.07-.06,.18-.06,.24-.13,.04-.05,.19-.11,.25-.11,.04,0,.32-.13,.37-.16,.08,0,.3-.01,.37-.07,.04-.04,.42-.08,.48-.08,.08,0,.13-.05,.18-.05,.04,0,.07,.02,.12,.02,.25,0,.52-.01,.77-.01,.07,0,.16,.01,.23,.01,.06,0,.12,.05,.19,.05,.1,0,.24-.04,.36-.04,.13,0,.24,.07,.28,.07,.06,0,.12-.02,.18-.02s.12,.07,.18,.07h.18s.06,.01,.1,.01,.08,0,.12,.01c.22,.07,.18,.13,.35,.22,.14,.07,.29,.02,.42,.13,.1,.08,.16,.29,.23,.35,.05,.05,.14,.04,.19,.1,.1,.11,.32,.25,.32,.42,0,.04-.12,.26-.12,.3,0,.06,.02,.11,.02,.17,0,.1-.11,.2-.18,.26-.12,.11-.11,.29-.2,.38-.05,.05-.07,.13-.12,.19-.05,.06-.1,.16-.17,.19-.05,.02-.12,.07-.14,.13-.04,.11-.07,.29-.23,.29-.07,0-.17,.04-.22,.07-.04,.02-.05,.02-.08,.02h-.11c-.06,0-.13,0-.17,.02-.05,.02-.32,.12-.38,.12-.05,0-.22-.04-.26-.05-.01-.01-.04-.01-.05-.01-.05,0-.08,.02-.12,.02-.01,0-.02,0-.04-.01-.02,0-.05-.01-.07-.01s-.05,.01-.06,.04c0,.07,.08,.24,.13,.3,.04,.05,.04,.12,.06,.17,.04,.07,.02,.17,.05,.25,.04,.08,.14,.55,.17,.58,.11,.08,.04,.25,.12,.35,.05,.06,.07,.12,.08,.19,.01,.06,.17,.34,.22,.35,.08,.02,.1,.02,.14,.1,.05,.07,.22,.22,.3,.22,.07,0,.1,.12,.23,.12,.1,0,.52-.07,.58-.12,.06-.04,.11-.14,.17-.17,.05-.01,.08-.07,.12-.1,.05-.04,.1-.06,.13-.11,.05-.06,.13-.07,.18-.12,.02-.02,.07-.13,.11-.13,.01,0,.02,.01,.02,.02,0,.17-.17,.22-.25,.32Zm-.91-3.68c0-.06,.01-.12,.01-.18s-.05-.11-.05-.16,.01-.1,.01-.14c0-.06-.01-.11-.04-.17s0-.13-.05-.18c-.05-.04-.17-.11-.17-.17,0-.02,.01-.04,.01-.06,0-.07-.14-.29-.19-.32-.05-.05-.13-.04-.17-.07-.05-.06-.28-.12-.35-.12-.06,0-.29,.08-.29,.16,0,.19-.11,.23-.12,.3-.01,.07-.19,.32-.25,.37-.05,.04-.1,.1-.1,.16,0,.19-.17,.28-.23,.43-.06,.13-.22,.23-.23,.37-.01,.22-.14,.38-.25,.56-.04,.06-.04,.14-.08,.19s-.05,.08-.05,.14c0,.11,.12,.12,.23,.12h.13c.1,0,.16,.05,.24,.05,.06,0,.1-.05,.19-.05,.07,0,.12,.02,.18,.02,.12,0,.23-.02,.35-.02,.13,0,.17-.05,.34-.05,.08,0,.11-.07,.16-.12,.06-.06,.13-.05,.2-.07,.08-.02,.14-.17,.23-.23,.05-.04,.05-.12,.06-.17,.01-.06,.04-.11,.1-.13s.06-.06,.07-.12c.01-.11,.11-.18,.11-.28,0-.02-.01-.05-.01-.07Z"/>
  <path class="cls-1" d="M16.48,4.41c0,.07,.01,.14,.01,.22,0,.16-.13,.26-.13,.42,0,.42-.19,.48-.25,.8-.02,.16-.16,.48-.26,.59-.08,.08-.18,.17-.22,.29-.04,.11-.12,.2-.2,.28-.06,.05-.11,.12-.13,.2-.01,.06-.58,.64-.64,.65-.11,.02-.1,.16-.19,.2-.18,.08-.26,.28-.43,.36-.1,.05-.3,.3-.4,.35-.23,.11-.26,.28-.58,.42-.11,.05-.17,.18-.28,.22-.08,.04-.13,.13-.22,.16-.16,.05-.36,.26-.48,.29-.02,0-.42,.22-.46,.24-.02,.01-.44,.2-.44,.2-.06,0-.12,.02-.17,.05-.05,.02-.07,.07-.13,.07-.04,0-.07-.02-.11-.02-.08,0-.16,.06-.24,.06s-.28-.13-.3-.22c-.02-.08-.02-.14-.11-.19-.1-.05-.07-.13-.12-.2-.04-.06-.13-.18-.13-.25,0-.06,.14-.32,.19-.35,.07-.04,.11-.14,.13-.22,.04-.11,.11-.19,.19-.28,.04-.04,.24-.53,.24-.58,0,0-.19,.13-.28,.22-.01,.01-.08,.08-.07,.1l-.22,.23c-.06,.06-.17,.06-.2,.16-.04,.1-.29,.23-.37,.35-.06,.08-.12,.18-.22,.23-.1,.05-.2,.31-.35,.4-.12,.07-.37,.23-.52,.24-.1,.01-.14,.01-.23,.07-.14,.1-.3,.19-.48,.19-.13,0-.24-.19-.36-.23-.08-.02-.13-.08-.2-.13-.05-.02-.05-.07-.05-.12v-.1c0-.06-.01-.11-.1-.14-.04-.01-.26-.28-.26-.3,0-.05,.1-.4,.14-.43,.08-.07,.1-.2,.17-.3,.07-.1,.05-.18,.06-.29,.01-.12,.11-.17,.18-.24,.06-.06,.04-.19,.12-.29,.08-.11,.1-.23,.22-.32,.12-.1,.11-.23,.19-.31,.16-.16,.12-.46,.29-.62,.06-.06,.19-.25,.19-.35,0-.11,.08-.18,.14-.26,.08-.11,.05-.2,.11-.28,.08-.1,.1-.23,.17-.32,.11-.12,.26-.59,.26-.76,0-.07-.07-.19-.08-.28-.01-.06-.12-.11-.18-.11-.19,0-.41,.2-.52,.2-.18,0-.31,.23-.49,.23-.11,0-.18,.01-.24,.11-.05,.08-.13,.04-.22,.13-.07,.1-.12,.02-.18,.12-.05,.08-.08,.08-.18,.11-.04,.01-.08,.05-.11,.05-.01,0-.06-.02-.07-.04,0-.04,.06-.08,.1-.1,.12-.04,.1-.11,.18-.16s.13-.05,.2-.12c.07-.07,.08-.08,.18-.11,.1-.02,.17-.12,.22-.2,.05-.1,.2-.06,.26-.13,.06-.07,.11-.12,.2-.13,.08-.01,.18-.16,.28-.16,.11,0,.3-.17,.36-.25,.05-.07,.14-.05,.22-.08,.07-.04,.13-.11,.22-.12,.05-.01,.1-.01,.14-.01s.08,.01,.12,.05c.1,.02,.22,.06,.31,.06,.08,0,.11,0,.16,.08,.11,.2,.47,.23,.47,.53,0,.04-.01,.06-.04,.08-.06,.07-.06,.12-.08,.2-.04,.11-.1,.11-.16,.18-.05,.06-.35,.66-.37,.72-.05,.08-.06,.2-.14,.25-.07,.04-.08,.12-.1,.19-.01,.08-.1,.12-.12,.2-.04,.11-.08,.16-.16,.24-.07,.08-.07,.19-.16,.28-.06,.06-.07,.16-.14,.22-.08,.07-.11,.14-.13,.25-.02,.08-.05,.12-.11,.18-.07,.06-.26,.41-.28,.49-.01,.08-.1,.14-.1,.22,0,.22-.18,.24-.18,.47v.1c0,.06,0,.12-.02,.16-.08,.13-.18,.24-.18,.41,0,.08,.05,.1,.05,.14s0,.04,.04,.06c.06,.04,.08,.12,.17,.13,.08,.01,.14,.1,.22,.1,.05,0,.08-.01,.13-.01,.07,0,.12,.05,.19,.05,.06,0,.12-.05,.16-.08,.07-.06,.18-.06,.23-.11,.14-.13,.28-.14,.34-.23,.07-.1,.24-.26,.34-.32s.13-.18,.23-.24c.1-.06,.25-.23,.31-.31,.1-.14,.26-.23,.36-.37,.06-.08,.14-.18,.24-.23,.17-.07,.13-.35,.25-.43,.1-.07,.06-.16,.12-.23,.02-.02,.2-.42,.2-.46,0-.08,.07-.13,.11-.19,.04-.06,.08-.23,.1-.3,.01-.1,.07-.19,.12-.28s.02-.19,.08-.28c.06-.08,.04-.22,.11-.28,.06-.05,.07-.22,.07-.35v-.17c0-.07,.04-.07,.06-.13,0-.02-.01-.05-.01-.07s.01-.04,.02-.05c.04-.06,.12-.16,.12-.23,0-.08,.08-.17,.17-.19,.11-.02,.06-.16,.16-.17,.08-.01,.14-.08,.23-.08,.18,0,.28,.02,.37,.18,.1,.14,.24-.04,.37,.2,.01,.01,.01,.04,.01,.05,0,.06-.07,.12-.1,.17-.07,.13-.18,.47-.29,.56-.08,.07-.1,.19-.18,.26-.18,.17-.14,.42-.32,.59-.08,.07-.12,.11-.13,.22-.01,.1-.12,.17-.14,.26-.01,.08-.1,.26-.16,.32-.13,.16-.08,.38-.22,.47-.1,.06-.11,.11-.12,.22-.01,.08-.1,.14-.11,.23-.02,.1-.04,.19-.11,.28-.06,.07-.04,.18-.11,.23-.06,.04-.11,.06-.11,.14,0,.1-.11,.48-.17,.55-.05,.05-.07,.11-.07,.18,0,.04,.01,.07,.01,.11,0,.11-.04,.22-.04,.32,0,.04,0,.07,.02,.1,.07,.24,.13,.26,.37,.26,.34,0,.7-.24,.98-.4,.11-.06,.2-.18,.32-.22s.19-.17,.31-.22c.24-.1,.35-.34,.56-.46,.08-.05,.12-.16,.22-.2,.12-.06,.17-.25,.3-.32,.06-.04,.52-.58,.54-.64,.04-.13,.11-.16,.2-.23,.07-.05,.12-.24,.17-.32,.1-.16,.18-.31,.24-.49,.05-.13,.04-.29,.1-.41,.05-.11,.06-.17,.06-.29,0-.29-.22-.16-.22-.37,0-.1-.11-.18-.11-.23,0-.07,.05-.13,.05-.19,0-.19-.23-.17-.23-.31,0-.01,0-.04,.01-.05,.04-.08,.08-.25,.17-.3,.04-.02,.13-.29,.13-.34s.01-.08,.05-.12c.08-.07,.2-.05,.29-.12,.1,0,.14,.06,.23,.1,.1,.04,.13,.17,.2,.17,.11,0,.16,.07,.19,.16,.05,.11,.16,.08,.17,.23,0,.04,.01,.06,.01,.1,0,.08-.04,.16-.04,.23Z"/>
</svg>